<svg xmlns="http://www.w3.org/2000/svg" id="add-role" viewBox="0 0 22 23.68"><path id="key" d="M19,13a3,3,0,1,0-4,2.82V19a1,1,0,0,0,2,0V15.82A3,3,0,0,0,19,13Z" class="lexicon-icon-body" transform="translate(-4 -5.32)"/><path id="shield" d="M24.39,6.68,19.14,5.63a16,16,0,0,0-6.28,0L7.61,6.68A2,2,0,0,0,6,8.64v8.94s0,.06,0,.1a6.94,6.94,0,0,1,2-.6V8.64l5.25-1.05a14,14,0,0,1,5.49,0L24,8.64v8.94a6,6,0,0,1-3.77,5.57L16,24.85l-.05,0a7,7,0,0,1-.51,1.93,1.91,1.91,0,0,0,1.31-.05L21,25a8,8,0,0,0,5-7.43V8.64A2,2,0,0,0,24.39,6.68Z" class="lexicon-icon-outline" transform="translate(-4 -5.32)"/><path d="M9,19a5,5,0,1,0,5,5A5,5,0,0,0,9,19Zm2.5,6H10v1.5a1,1,0,0,1-2,0V25H6.5a1,1,0,0,1,0-2H8V21.5a1,1,0,0,1,2,0V23h1.5a1,1,0,0,1,0,2Z" class="lexicon-icon-body" transform="translate(-4 -5.32)"/></svg>