<svg xmlns="http://www.w3.org/2000/svg" xmlns:xlink="http://www.w3.org/1999/xlink" id="calendar" width="512" height="512" x="0" style="enable-background:new 0 0 511.4 512" y="0" version="1.1" viewBox="0 0 511.4 512" xml:space="preserve"><path fill="none" d="M511.4,159.4c0-35-28.4-63.4-63.4-63.4h-0.3V64V32c0-17.7-14.3-32-32-32s-32,14.3-32,32v64h-96V32	c0-17.7-14.3-32-32-32s-32,14.3-32,32v64h-96V32c0-17.7-14.3-32-32-32s-32,14.3-32,32v64h-0.3C28.4,96,0,124.4,0,159.4v284.3	c0,35,28.4,68.4,63.4,68.4h320h32l96-96h0L511.4,159.4z" class="lexicon-icon-body"/><path d="M511.4,159.4c0-35-28.4-63.4-63.4-63.4h-0.3V64V32c0-17.7-14.3-32-32-32s-32,14.3-32,32v64h-96V32c0-17.7-14.3-32-32-32	s-32,14.3-32,32v64h-96V32c0-17.7-14.3-32-32-32s-32,14.3-32,32v64h-0.3C28.4,96,0,124.4,0,159.4v284.3c0,35,28.4,68.4,63.4,68.4	h320h32l96-96h0L511.4,159.4z M383.4,448v-64h64L383.4,448z M447.4,288v32h-96h-32v32v96H66c-1-1.2-2-3.1-2-4.4L64,160l383.4,0V288z" class="lexicon-icon-outline"/><rect width="32" height="32" x="95.7" y="192" class="lexicon-icon-outline"/><rect width="32" height="32" x="159.7" y="192" class="lexicon-icon-outline"/><rect width="32" height="32" x="223.7" y="192" class="lexicon-icon-outline"/><rect width="32" height="32" x="287.7" y="192" class="lexicon-icon-outline"/><rect width="32" height="32" x="351.7" y="192" class="lexicon-icon-outline"/><rect width="32" height="32" x="95.7" y="256" class="lexicon-icon-outline"/><rect width="32" height="32" x="159.7" y="256" class="lexicon-icon-outline"/><rect width="32" height="32" x="223.7" y="256" class="lexicon-icon-outline"/><rect width="32" height="32" x="287.7" y="256" class="lexicon-icon-outline"/><rect width="32" height="32" x="351.7" y="256" class="lexicon-icon-outline"/><rect width="32" height="32" x="95.7" y="320" class="lexicon-icon-outline"/><rect width="32" height="32" x="95.7" y="384" class="lexicon-icon-outline"/><rect width="32" height="32" x="159.7" y="384" class="lexicon-icon-outline"/><rect width="32" height="32" x="159.7" y="320" class="lexicon-icon-outline"/><rect width="32" height="32" x="223.7" y="320" class="lexicon-icon-outline"/></svg>