<svg xmlns="http://www.w3.org/2000/svg" xmlns:xlink="http://www.w3.org/1999/xlink" width="512" height="512" version="1.1" viewBox="0 0 512 512"><path d="M192 0h-160c-17.664 0-32 14.336-32 32v160c0 17.664 14.336 32 32 32h160c17.664 0 32-14.336 32-32v-160c0-17.664-14.336-32-32-32z" class="lexicon-icon-outline"/><path d="M192 288h-160c-17.664 0-32 14.336-32 32v160c0 17.664 14.336 32 32 32h160c17.664 0 32-14.336 32-32v-160c0-17.664-14.336-32-32-32z" class="lexicon-icon-outline"/><path d="M480 0h-160c-17.664 0-32 14.336-32 32v160c0 17.664 14.336 32 32 32h160c17.664 0 32-14.336 32-32v-160c0-17.664-14.336-32-32-32z" class="lexicon-icon-outline"/><path d="M480 288h-160c-17.664 0-32 14.336-32 32v160c0 17.664 14.336 32 32 32h160c17.664 0 32-14.336 32-32v-160c0-17.664-14.336-32-32-32z" class="lexicon-icon-outline"/></svg>