<svg xmlns="http://www.w3.org/2000/svg" xmlns:xlink="http://www.w3.org/1999/xlink" id="desktop" width="512" height="512" x="0" style="enable-background:new 0 0 512 512" y="0" version="1.1" viewBox="0 0 512 512" xml:space="preserve"><path fill="none" d="M448,0H64C28.8,0,0,28.8,0,64v289.2c0,35.2,28.8,64,64,64h384c35.2,0,64-28.8,64-64V64C512,28.8,483.2,0,448,0z" class="lexicon-icon-body"/><path d="M448,0H64C28.8,0,0,28.8,0,64v289.2c0,35.2,28.8,64,64,64h384c35.2,0,64-28.8,64-64V64C512,28.8,483.2,0,448,0z M432,385.2	c-8.8,0-16-7.2-16-16s7.2-16,16-16s16,7.2,16,16S440.8,385.2,432,385.2z M448,320H64V64h384V320z" class="lexicon-icon-outline"/><path d="M448,448H64c-17.7,0-32,14.3-32,32s14.3,32,32,32h384c17.7,0,32-14.3,32-32S465.7,448,448,448z" class="lexicon-icon-outline"/></svg>