<svg xmlns="http://www.w3.org/2000/svg" xmlns:xlink="http://www.w3.org/1999/xlink" id="flag_empty" width="512" height="512" x="0" style="enable-background:new 0 0 512 512" y="0" version="1.1" viewBox="0 0 512 512" xml:space="preserve"><path d="M415,32H160c0-17.7-14.3-32-32-32S96,14.3,96,32v33v190.2V480c0,17.7,14.3,32,32,32s32-14.3,32-32V288h255	c18.2,0,33-14.8,33-33V65C448,46.8,433.2,32,415,32z" class="lexicon-icon-body"/><path d="M415,32H160c0-17.7-14.3-32-32-32S96,14.3,96,32v33v190.2V480c0,17.7,14.3,32,32,32s32-14.3,32-32V288h255	c18.2,0,33-14.8,33-33V65C448,46.8,433.2,32,415,32z M384,224H160V96h224V224L384,224z" class="lexicon-icon-outline"/></svg>