<svg xmlns="http://www.w3.org/2000/svg" xmlns:xlink="http://www.w3.org/1999/xlink" id="forms" width="512" height="512" x="0" style="enable-background:new 0 0 512 512" y="0" version="1.1" viewBox="0 0 512 512" xml:space="preserve"><path fill="none" d="M448,0H64C28.7,0,0,28.7,0,64v384c0,35.3,28.7,64,64,64h384c35.3,0,64-28.7,64-64V64C512,28.7,483.3,0,448,0z" class="lexicon-icon-body"/><path d="M448,0H64C28.7,0,0,28.7,0,64v384c0,35.3,28.7,64,64,64h384c35.3,0,64-28.7,64-64V64C512,28.7,483.3,0,448,0z M448,448H64	V64h384V448C448,448,448,448,448,448z" class="lexicon-icon-outline"/><path d="M384,128H224c-17.7,0-32,14.3-32,32s14.3,32,32,32h160c17.7,0,32-14.3,32-32S401.7,128,384,128z" class="lexicon-icon-outline"/><circle cx="128" cy="160" r="32" class="lexicon-icon-outline"/><path d="M384,224H224c-17.7,0-32,14.3-32,32s14.3,32,32,32h160c17.7,0,32-14.3,32-32S401.7,224,384,224z" class="lexicon-icon-outline"/><circle cx="128" cy="256" r="32" class="lexicon-icon-outline"/><path d="M384,320H224c-17.7,0-32,14.3-32,32s14.3,32,32,32h160c17.7,0,32-14.3,32-32S401.7,320,384,320z" class="lexicon-icon-outline"/><circle cx="128" cy="352" r="32" class="lexicon-icon-outline"/></svg>