<svg xmlns="http://www.w3.org/2000/svg" xmlns:xlink="http://www.w3.org/1999/xlink" id="geolocation" width="512" height="512" x="0" style="enable-background:new 0 0 512 512" y="0" version="1.1" viewBox="0 0 512 512" xml:space="preserve"><path d="M256,0c-79.4,0-144,61.7-144,137.5c0,43.3,102.1,307.3,122.5,359.8c3.5,8.9,12,14.8,21.5,14.8l0,0c9.5,0,18-5.9,21.5-14.8	c28.7-73.8,122.5-318,122.5-359.7C400,61.7,335.4,0,256,0z M256,224c-44.2,0-80-35.8-80-80s35.8-80,80-80s80,35.8,80,80	S300.2,224,256,224z" class="lexicon-icon-outline"/></svg>