<svg xmlns="http://www.w3.org/2000/svg" xmlns:xlink="http://www.w3.org/1999/xlink" id="mark-as-answer" width="512" height="512" x="0" y="0" enable-background="new 0 0 416 448" version="1.1" viewBox="0 0 416 448" xml:space="preserve"><g><path d="M96,0C43.0654,0,0,43.0654,0,96c0,17.6733,14.3267,32,32,32s32-14.3267,32-32c0-17.645,14.355-32,32-32s32,14.355,32,32 c0,18.5171-6.9668,26.209-22.7241,41.8433C87.8564,155.126,64,178.7954,64,224c0,17.6729,14.3267,32,32,32s32-14.3271,32-32 c0-17.7974,6.8525-25.3462,22.3521-40.7241C167.9282,165.8374,192,141.9546,192,96C192,43.0654,148.9346,0,96,0z" class="lexicon-icon-outline"/><circle cx="96" cy="320" r="32"/><path d="M384,192H192c-17.6733,0-32,14.3267-32,32s14.3267,32,32,32h192c17.6729,0,32-14.3267,32-32S401.6729,192,384,192z" class="lexicon-icon-outline"/><path d="M352,288H192c-17.6733,0-32,14.3267-32,32s14.3267,32,32,32h160c17.6729,0,32-14.3267,32-32S369.6729,288,352,288z" class="lexicon-icon-outline"/><path d="M320,384H192c-17.6733,0-32,14.3271-32,32s14.3267,32,32,32h128c17.6729,0,32-14.3271,32-32S337.6729,384,320,384z" class="lexicon-icon-outline"/></g></svg>