<svg xmlns="http://www.w3.org/2000/svg" xmlns:xlink="http://www.w3.org/1999/xlink" id="mobile-devices-rules" width="512" height="512" x="0" y="0" enable-background="new 0 0 512 448.159" version="1.1" viewBox="0 0 512 448.159" xml:space="preserve"><path d="M192,0H64C28.8,0,0,28.8,0,64v0.1588v255.5755v0.4245v64c0,35.2,28.8,64,64,64h128c35.2,0,64-28.8,64-64v-64v-256V64	C256,28.8,227.2,0,192,0z M129,416.1588c-8.8365,0-16-7.1635-16-16s7.1635-16,16-16s16,7.1635,16,16S137.8365,416.1588,129,416.1588	z M192,320.1588v30.8041H64v-30.8041v-256V64h128v0.1588V320.1588z" class="lexicon-icon-body"/><circle cx="320" cy="96" r="32" class="lexicon-icon-outline"/><circle cx="320" cy="352" r="32" class="lexicon-icon-outline"/><circle cx="320" cy="224" r="32" class="lexicon-icon-outline"/><path d="M416,128h64c17.6729,0,32-14.3271,32-32s-14.3271-32-32-32h-64c-17.6729,0-32,14.3271-32,32S398.3271,128,416,128z" class="lexicon-icon-outline"/><path d="M480,192h-64c-17.6729,0-32,14.3271-32,32s14.3271,32,32,32h64c17.6729,0,32-14.3271,32-32S497.6729,192,480,192z" class="lexicon-icon-outline"/><path d="M480,320h-64c-17.6729,0-32,14.3271-32,32s14.3271,32,32,32h64c17.6729,0,32-14.3271,32-32S497.6729,320,480,320z" class="lexicon-icon-outline"/></svg>