<svg xmlns="http://www.w3.org/2000/svg" xmlns:xlink="http://www.w3.org/1999/xlink" id="mobile-landscape" width="512" height="512" x="0" style="enable-background:new 0 0 384 288" y="0" version="1.1" viewBox="0 0 384 288" xml:space="preserve"><path fill="none" d="M320,0H64C28.8,0,0,28.8,0,64v160c0,35.2,28.8,64,64,64h256c35.2,0,64-28.8,64-64V64C384,28.8,355.2,0,320,0z M336,160c-8.8,0-16-7.2-16-16s7.2-16,16-16s16,7.2,16,16S344.8,160,336,160z" class="lexicon-icon-body"/><path d="M320,0H64C28.8,0,0,28.8,0,64v160c0,35.2,28.8,64,64,64h256c35.2,0,64-28.8,64-64V64C384,28.8,355.2,0,320,0z M286.8,224H64	V64h222.8V224L286.8,224z M336,160c-8.8,0-16-7.2-16-16s7.2-16,16-16s16,7.2,16,16S344.8,160,336,160z" class="lexicon-icon-outline"/></svg>