<svg xmlns="http://www.w3.org/2000/svg" xmlns:xlink="http://www.w3.org/1999/xlink" id="page-template" width="512" height="512" x="0" y="0" enable-background="new 0 0 512 511.375" version="1.1" viewBox="0 0 512 511.375" xml:space="preserve"><path d="M416,0v0.0001L63.375,0C28.3739,0,0,28.3741,0,63.375v384.6252c0,35.0009,28.3739,63.375,63.375,63.375h380.25	c35.0011,0,68.375-28.3741,68.375-63.375V128.0001V96.0002L416,0z M448,445.3696c-1.1612,0.9965-3.1295,2.0057-4.375,2.0057	L64,447.3748L64.0004,64H288h32v96v32.0001h32h96V445.3696z M384,128.0001v-64l64,64H384z" class="lexicon-icon-outline"/><rect width="192" height="96" x="96" y="96" class="lexicon-icon-body"/><rect width="192" height="192" x="96" y="224" class="lexicon-icon-body"/><rect width="96" height="192" x="320" y="224" class="lexicon-icon-body"/></svg>