<svg xmlns="http://www.w3.org/2000/svg" xmlns:xlink="http://www.w3.org/1999/xlink" id="rss.svg" width="512" height="512" x="0" y="0" enable-background="new 0 0 391.089 391.089" version="1.1" viewBox="0 0 391.089 391.089" xml:space="preserve"><g><circle cx="60.071" cy="331.018" r="58.601" class="lexicon-icon-outline"/><path d="M32,116.1255c-17.6729,0-32,14.3267-32,32s14.3271,32,32,32c98.6812,0,178.9639,80.2832,178.9639,178.9639 c0,17.6729,14.3271,32,32,32s32-14.3271,32-32c0-64.8984-25.2725-125.9121-71.1621-171.8018 C157.9116,141.3979,96.8979,116.1255,32,116.1255z" class="lexicon-icon-outline"/><path d="M362.8564,219.3062c-18.0869-42.7642-43.9746-81.1636-76.9424-114.1313s-71.3662-58.855-114.1304-76.9424 C127.4927,9.4985,80.4629,0,32,0C14.3271,0,0,14.3267,0,32s14.3271,32,32,32c78.8213,0,152.9248,30.6948,208.6592,86.4297 c55.7354,55.7349,86.4297,129.8384,86.4297,208.6597c0,17.6729,14.3271,32,32,32s32-14.3271,32-32 C391.0889,310.6265,381.5898,263.5962,362.8564,219.3062z" class="lexicon-icon-outline"/></g><path fill="none" stroke="#231F20" stroke-miterlimit="10" d="M1.4702,62.5298" class="lexicon-icon-outline"/></svg>