<svg xmlns="http://www.w3.org/2000/svg" xmlns:xlink="http://www.w3.org/1999/xlink" id="tablet-vertical" width="512" height="512" x="0" style="enable-background:new 0 0 352 416" y="0" version="1.1" viewBox="0 0 352 416" xml:space="preserve"><path fill="none" d="M288,0H64C28.8,0,0,28.8,0,64v288c0,35.2,28.8,64,64,64h224c35.2,0,64-28.8,64-64V64C352,28.8,323.2,0,288,0z M176,384c-8.8,0-16-7.2-16-16s7.2-16,16-16s16,7.2,16,16S184.8,384,176,384z" class="lexicon-icon-body"/><path d="M288,0H64C28.8,0,0,28.8,0,64v288c0,35.2,28.8,64,64,64h224c35.2,0,64-28.8,64-64V64C352,28.8,323.2,0,288,0z M176,384	c-8.8,0-16-7.2-16-16s7.2-16,16-16s16,7.2,16,16S184.8,384,176,384z M288,318.8H64V64h224V318.8z" class="lexicon-icon-outline"/></svg>