<svg xmlns="http://www.w3.org/2000/svg" xmlns:xlink="http://www.w3.org/1999/xlink" id="trash" width="512" height="512" x="0" style="enable-background:new 0 0 384 513" y="0" version="1.1" viewBox="0 0 384 513" xml:space="preserve"><path fill="none" d="M0,441.6C0,481,32,513,71.4,513h241.1c39.4,0,71.4-32,71.4-71.4V129H0V441.6z" class="lexicon-icon-body"/><path d="M0,441.6C0,481,32,513,71.4,513h241.1c39.4,0,71.4-32,71.4-71.4V129H0V441.6z M64,193h256v232.2c0,13.1-10.7,23.8-23.8,23.8	H87.8C74.7,449,64,438.3,64,425.2V193z" class="lexicon-icon-outline"/><polygon points="288 33 288 0 96 0 96 33 0 33 0 96.3 384 96.3 384 33" class="lexicon-icon-outline"/><rect width="64" height="192" x="224" y="224" class="lexicon-icon-outline"/><rect width="64" height="192" x="96" y="224" class="lexicon-icon-outline"/></svg>